<svg width="45" height="45" viewBox="0 0 45 45" fill="none" xmlns="http://www.w3.org/2000/svg">
<path d="M23.026 7.5481V11.5781L27.052 9.2531L28.052 10.9861L23.026 13.8871V20.8151L29.026 17.3511V11.5481H31.026V16.1961L34.517 14.1821L35.517 15.9141L32.026 17.9291L36.052 20.2531L35.052 21.9861L30.026 19.0831L24.026 22.5471L30.027 26.0121L35.052 23.1101L36.052 24.8421L32.026 27.1661L35.517 29.1821L34.517 30.9141L31.026 28.8991V33.5481H29.026V27.7441L23.026 24.2791V31.2081L28.052 34.1101L27.052 35.8421L23.026 33.5171V37.5481H21.026V33.5171L17 35.8421L16 34.1101L21.026 31.2081V24.2791L15.026 27.7431V33.5481H13.026V28.8981L9.536 30.9141L8.536 29.1821L12.025 27.1661L8 24.8421L9 23.1101L14.025 26.0111L20.025 22.5471L14.026 19.0831L9 21.9861L8 20.2531L12.026 17.9291L8.536 15.9141L9.536 14.1821L13.026 16.1961V11.5481H15.026V17.3511L21.026 20.8151V13.8871L16 10.9861L17 9.2531L21.026 11.5781V7.5481H23.026Z" fill="#25535D"/>
</svg>
