<svg width="45" height="45" viewBox="0 0 45 45" fill="none" xmlns="http://www.w3.org/2000/svg">
<g clip-path="url(#clip0_1473_1094)">
<path d="M19 25.875L14 36.875" stroke="#25535D" stroke-width="2" stroke-linejoin="round"/>
<path d="M27 25.875L32 36.875" stroke="#25535D" stroke-width="2" stroke-linejoin="round"/>
<path d="M23 36.875V25.875" stroke="#25535D" stroke-width="2" stroke-linejoin="round"/>
<path d="M12 15.875C12 21.95 16.925 26.875 23 26.875C29.075 26.875 34 21.95 34 15.875" stroke="#25535D" stroke-width="2" stroke-linejoin="round"/>
<path d="M30 31.875H16" stroke="#25535D" stroke-width="2" stroke-linejoin="round"/>
<path d="M13 18.875H9" stroke="#25535D" stroke-width="2" stroke-linejoin="round"/>
<path d="M37 18.875H33" stroke="#25535D" stroke-width="2" stroke-linejoin="round"/>
<path d="M19.705 14.875C16.152 14.875 11 14.875 11 14.875" stroke="#25535D" stroke-width="2" stroke-linejoin="round"/>
<path d="M35 14.875C35 14.875 32.307 14.875 29.527 14.875" stroke="#25535D" stroke-width="2" stroke-linejoin="round"/>
<path d="M30.994 -13.1249C30.999 -8.29192 27 -7.04192 27 -2.12492C27 2.79208 30.999 4.04208 30.994 8.87508C30.989 13.7081 27 15.0421 27 19.8751M25.994 -13.1249C25.999 -8.29192 22 -7.04192 22 -2.12492C22 2.79208 25.999 4.04208 25.994 8.87508C25.989 13.7081 22 15.0421 22 19.8751M20.994 -13.1249C20.999 -8.29192 17 -7.04192 17 -2.12492C17 2.79208 20.999 4.04208 20.994 8.87508C20.989 13.7081 17 15.0421 17 19.8751M30.994 -35.1909C30.999 -30.3579 27 -29.1079 27 -24.1909C27 -19.2739 30.999 -18.0239 30.994 -13.1909V-13.1249C30.999 -8.29192 27 -7.04192 27 -2.12492C27 2.79208 30.999 4.04208 30.994 8.87508C30.989 13.7081 27 15.0421 27 19.8751M25.994 -35.1909C25.999 -30.3579 22 -29.1079 22 -24.1909C22 -19.2739 25.999 -18.0239 25.994 -13.1909V-13.1249C25.999 -8.29192 22 -7.04192 22 -2.12492C22 2.79208 25.999 4.04208 25.994 8.87508C25.989 13.7081 22 15.0421 22 19.8751M20.994 -35.1909C20.999 -30.3579 17 -29.1079 17 -24.1909C17 -19.2739 20.999 -18.0239 20.994 -13.1909V-13.1249C20.999 -8.29192 17 -7.04192 17 -2.12492C17 2.79208 20.999 4.04208 20.994 8.87508C20.989 13.7081 17 15.0421 17 19.8751" stroke="#25535D" stroke-width="2" stroke-linejoin="round"/>
</g>
<defs>
<clipPath id="clip0_1473_1094">
<rect width="45" height="45" fill="white"/>
</clipPath>
</defs>
</svg>
