<svg width="45" height="46" viewBox="0 0 45 46" fill="none" xmlns="http://www.w3.org/2000/svg">
<path d="M24 15.75C27.314 15.75 30 18.436 30 21.75V36.75C30 37.302 29.552 37.75 29 37.75H19C18.448 37.75 18 37.302 18 36.75V21.75L18.004 21.525C18.122 18.316 20.762 15.75 24 15.75Z" stroke="#25535D" stroke-width="2"/>
<path d="M15 29.75H19H15Z" stroke="#25535D" stroke-width="2"/>
<path d="M24 11.75V15.75V11.75Z" stroke="#25535D" stroke-width="2"/>
<path d="M31 11.75H24C18.477 11.75 14 16.227 14 21.75V34.75" stroke="#25535D" stroke-width="2"/>
<path d="M24 11.75L29 7.75L24 11.75Z" stroke="#25535D" stroke-width="2"/>
<path d="M24 13.75C25.105 13.75 26 12.855 26 11.75C26 10.645 25.105 9.75 24 9.75C22.895 9.75 22 10.645 22 11.75C22 12.855 22.895 13.75 24 13.75Z" fill="white"/>
<path d="M24 13.75C25.105 13.75 26 12.855 26 11.75C26 10.645 25.105 9.75 24 9.75C22.895 9.75 22 10.645 22 11.75C22 12.855 22.895 13.75 24 13.75Z" stroke="#25535D" stroke-width="2"/>
</svg>
