<svg width="45" height="41" viewBox="0 0 45 41" fill="none" xmlns="http://www.w3.org/2000/svg">
<g clip-path="url(#clip0_1473_1149)">
<path d="M11 18.1411H35V33.1411C35 33.6931 34.552 34.1411 34 34.1411H12C11.448 34.1411 11 33.6931 11 33.1411V18.1411Z" stroke="#25535D" stroke-width="2"/>
<path d="M38 18.1411H35" stroke="#25535D" stroke-width="2"/>
<path d="M11 18.1411H8" stroke="#25535D" stroke-width="2"/>
<path d="M16.5 6.14111C14.019 6.14111 12 8.16011 12 10.6411C12 12.7781 13.5 14.5641 15.5 15.0211V12.9301C14.619 12.5431 14 11.6641 14 10.6411C14 9.26311 15.122 8.14111 16.5 8.14111C17.878 8.14111 19 9.26311 19 10.6411C19 11.6641 18.381 12.5431 17.5 12.9301V15.0211C19.5 14.5641 21 12.7781 21 10.6411C21 8.16011 18.981 6.14111 16.5 6.14111Z" fill="#25535D"/>
<path d="M11 18.1411C11 15.9321 12.791 14.1411 15 14.1411H14.737H15.434" stroke="#25535D" stroke-width="2"/>
<path d="M17.6021 14.1411H18.3421C19.4031 14.1411 20.4211 14.5621 21.1711 15.3121L29.0001 23.1411" stroke="#25535D" stroke-width="2"/>
<path d="M35 -12.7655C35.005 -8.55265 31 -7.46304 31 -3.17699C31 1.10907 35.005 2.19867 35 6.41151C34.995 10.6243 31 11.7872 31 16M35 -32C35.005 -27.7872 31 -26.6976 31 -22.4115C31 -18.1254 35.005 -17.0358 35 -12.823V-12.7655C35.005 -8.55265 31 -7.46304 31 -3.17699C31 1.10907 35.005 2.19867 35 6.41151C34.995 10.6243 31 11.7872 31 16" stroke="#25535D" stroke-width="2" stroke-linejoin="round"/>
<path d="M31 -13.7655C31.005 -9.55265 27 -8.46304 27 -4.17699C27 0.109069 31.005 1.19867 31 5.41151C30.995 9.62434 27 10.7872 27 15M31 -33C31.005 -28.7872 27 -27.6976 27 -23.4115C27 -19.1254 31.005 -18.0358 31 -13.823V-13.7655C31.005 -9.55265 27 -8.46304 27 -4.17699C27 0.109069 31.005 1.19867 31 5.41151C30.995 9.62434 27 10.7872 27 15" stroke="#25535D" stroke-width="2" stroke-linejoin="round"/>
</g>
<defs>
<clipPath id="clip0_1473_1149">
<rect width="45" height="41" fill="white"/>
</clipPath>
</defs>
</svg>
