<svg width="45" height="46" viewBox="0 0 45 46" fill="none" xmlns="http://www.w3.org/2000/svg">
<path d="M19.8621 32.0214H25.7931V33.9984H19.8621V32.0214ZM15.9081 33.9984V35.9754H29.7471V33.9984H27.7701V32.0214L28.8403 32.0175L29.0551 32.0122C31.6858 31.9002 31.5422 30.8181 28.8838 30.8181L16.4788 30.8273C13.848 30.9394 13.9904 32.0214 16.6488 32.0214H17.8851V33.9984H15.9081Z" fill="#25535D"/>
<path d="M12.9425 12.2514H32.7125L32.8865 12.2567C34.443 12.3463 35.678 13.6379 35.678 15.2169V27.0789L35.6727 27.2529C35.5831 28.8094 34.2915 30.0444 32.7125 30.0444H12.9425L12.7685 30.0391C11.212 29.9495 9.977 28.6579 9.977 27.0789V15.2169L9.98227 15.0429C10.0719 13.4864 11.3635 12.2514 12.9425 12.2514ZM27.77 32.0214H32.7125L32.9273 32.0175C35.5581 31.9054 37.655 29.7373 37.655 27.0789V15.2169L37.651 15.0021C37.539 12.3714 35.3709 10.2744 32.7125 10.2744H12.9425L12.7277 10.2784C10.0969 10.3904 8 12.5585 8 15.2169V27.0789L8.00395 27.2937C8.11598 29.9245 10.2841 32.0214 12.9425 32.0214H17.885H27.77Z" fill="#25535D"/>
</svg>
