<svg width="45" height="45" viewBox="0 0 45 45" fill="none" xmlns="http://www.w3.org/2000/svg">
<g clip-path="url(#clip0_1473_1267)">
<path d="M55.8141 59.8751C55.8141 57.1511 55.8141 54.4151 55.8141 51.6041C55.8141 48.7931 55.8141 45.9051 55.8141 42.8751C55.8141 39.7801 56.2261 35.9171 56.4321 32.5091C56.6381 29.1011 56.6371 26.1491 55.8141 24.8751C55.7481 24.7741 55.0751 24.7741 54.3791 24.7991C53.6841 24.8241 52.9661 24.8751 52.8141 24.8751C48.7041 24.8751 48.0151 23.1711 45.8141 21.8751C43.4831 20.5021 42.6641 19.8291 39.8141 19.8751C33.9331 19.9701 31.5791 24.9761 26.8141 24.8751C21.9711 24.7731 18.1401 18.7321 13.8141 18.8751C9.89213 19.0051 6.18913 24.8521 1.81413 24.8751C-3.36788 24.9031 -5.94787 18.8561 -10.1859 20.8751C-8.45887 34.2591 -12.6889 46.5881 -10.1859 52.8751C-9.66587 54.1811 -6.97687 55.6811 -5.18587 56.8751C-2.65987 58.5601 -0.798875 59.8831 1.81413 59.8751C6.42513 59.8611 9.37113 53.8171 14.8141 53.8751C18.6921 53.9161 23.3351 59.9831 27.8141 59.8751C33.1761 59.7451 34.9671 53.6901 40.8141 53.8751C46.4791 54.0551 48.5351 61.8671 55.8141 59.8751Z" stroke="#25535D" stroke-width="2"/>
<path d="M10.8141 9.875H34.8141C35.3661 9.875 35.8141 10.323 35.8141 10.875V34.875C35.8141 35.427 35.3661 35.875 34.8141 35.875H10.8141C10.2621 35.875 9.81409 35.427 9.81409 34.875V10.875C9.81409 10.323 10.2621 9.875 10.8141 9.875Z" stroke="#25535D" stroke-width="2"/>
<path d="M22.8141 14.875C27.2321 14.875 30.8141 18.457 30.8141 22.875C30.8141 27.293 27.2321 30.875 22.8141 30.875C18.3961 30.875 14.8141 27.293 14.8141 22.875C14.8141 18.457 18.3961 14.875 22.8141 14.875Z" stroke="#25535D" stroke-width="2"/>
<path d="M13.8141 12.875C14.3661 12.875 14.8141 13.323 14.8141 13.875C14.8141 14.427 14.3661 14.875 13.8141 14.875C13.2621 14.875 12.8141 14.427 12.8141 13.875C12.8141 13.323 13.2621 12.875 13.8141 12.875Z" fill="#25535D"/>
</g>
<defs>
<clipPath id="clip0_1473_1267">
<rect width="45" height="45" fill="white"/>
</clipPath>
</defs>
</svg>
