<svg width="132" height="34" viewBox="0 0 132 34" fill="none" xmlns="http://www.w3.org/2000/svg">
<path d="M57.4918 25.005V7.16225H64.0427C65.4701 7.16225 66.6426 7.40865 67.5603 7.90145C68.4949 8.37725 69.1916 9.03149 69.6504 9.86415C70.1092 10.6798 70.3386 11.5889 70.3386 12.5915C70.3386 13.6791 70.0497 14.6732 69.472 15.5738C68.9112 16.4745 68.0276 17.1287 66.8211 17.5365L70.5171 25.005H66.7701L63.4564 17.9699H60.7545V25.005H57.4918ZM60.7545 15.5738H63.8388C64.9263 15.5738 65.725 15.3104 66.2348 14.7837C66.7446 14.2569 66.9995 13.5601 66.9995 12.6935C66.9995 11.8438 66.7446 11.1641 66.2348 10.6543C65.742 10.1445 64.9348 9.88964 63.8133 9.88964H60.7545V15.5738ZM78.1582 25.3109C76.8837 25.3109 75.7537 25.039 74.7681 24.4952C73.7825 23.9514 73.0093 23.1867 72.4485 22.2011C71.8877 21.2155 71.6073 20.077 71.6073 18.7855C71.6073 17.4771 71.8792 16.313 72.423 15.2934C72.9838 14.2739 73.7485 13.4837 74.7171 12.9229C75.7027 12.3451 76.8582 12.0563 78.1837 12.0563C79.4242 12.0563 80.5202 12.3281 81.4718 12.8719C82.4234 13.4157 83.1626 14.1634 83.6894 15.115C84.2332 16.0496 84.5051 17.0947 84.5051 18.2502C84.5051 18.4372 84.4966 18.6326 84.4796 18.8365C84.4796 19.0404 84.4711 19.2528 84.4541 19.4737H74.8445C74.9125 20.4593 75.2524 21.2325 75.8641 21.7933C76.4929 22.3541 77.249 22.6345 78.1327 22.6345C78.7954 22.6345 79.3477 22.49 79.7895 22.2011C80.2483 21.8953 80.5882 21.5044 80.8091 21.0286H84.1228C83.8849 21.8273 83.4855 22.558 82.9247 23.2207C82.381 23.8665 81.7012 24.3763 80.8856 24.7501C80.0869 25.124 79.1778 25.3109 78.1582 25.3109ZM78.1837 14.7072C77.385 14.7072 76.6798 14.9366 76.068 15.3954C75.4563 15.8372 75.0654 16.5169 74.8955 17.4346H81.1914C81.1405 16.6019 80.8346 15.9392 80.2738 15.4464C79.713 14.9536 79.0163 14.7072 78.1837 14.7072ZM86.7394 25.005V12.3621H89.6198L89.8747 14.5033C90.2655 13.7556 90.8263 13.1608 91.557 12.719C92.3047 12.2772 93.1798 12.0563 94.1824 12.0563C95.7458 12.0563 96.9608 12.5491 97.8274 13.5347C98.6941 14.5203 99.1274 15.9647 99.1274 17.8679V25.005H95.8647V18.1738C95.8647 17.0862 95.6438 16.2536 95.202 15.6758C94.7602 15.098 94.072 14.8091 93.1373 14.8091C92.2197 14.8091 91.4635 15.132 90.8688 15.7777C90.291 16.4235 90.0021 17.3241 90.0021 18.4797V25.005H86.7394ZM107.371 25.005C106.045 25.005 104.983 24.6821 104.185 24.0364C103.386 23.3907 102.986 22.2436 102.986 20.5953V15.0895H100.82V12.3621H102.986L103.369 8.97201H106.249V12.3621H109.665V15.0895H106.249V20.6208C106.249 21.2325 106.377 21.6574 106.632 21.8953C106.903 22.1162 107.362 22.2266 108.008 22.2266H109.588V25.005H107.371ZM116.315 25.3109C115.227 25.3109 114.335 25.1409 113.639 24.8011C112.942 24.4442 112.424 23.9769 112.084 23.3992C111.744 22.8214 111.574 22.1841 111.574 21.4874C111.574 20.3149 112.033 19.3633 112.95 18.6326C113.868 17.9019 115.244 17.5365 117.08 17.5365H120.291V17.2307C120.291 16.364 120.045 15.7268 119.552 15.3189C119.059 14.9111 118.448 14.7072 117.717 14.7072C117.054 14.7072 116.476 14.8686 115.984 15.1915C115.491 15.4974 115.185 15.9562 115.066 16.5679H111.88C111.965 15.6503 112.271 14.8516 112.797 14.1719C113.341 13.4922 114.038 12.9739 114.888 12.617C115.737 12.2432 116.689 12.0563 117.742 12.0563C119.544 12.0563 120.963 12.5066 121.999 13.4072C123.036 14.3078 123.554 15.5823 123.554 17.2307V25.005H120.776L120.47 22.9658C120.096 23.6456 119.569 24.2063 118.889 24.6481C118.227 25.09 117.369 25.3109 116.315 25.3109ZM117.054 22.7619C117.989 22.7619 118.711 22.456 119.221 21.8443C119.748 21.2325 120.079 20.4763 120.215 19.5757H117.437C116.57 19.5757 115.95 19.7371 115.576 20.06C115.202 20.3659 115.015 20.7482 115.015 21.207C115.015 21.6998 115.202 22.0822 115.576 22.3541C115.95 22.626 116.442 22.7619 117.054 22.7619ZM126.158 25.005V6.65245H129.42V25.005H126.158Z" fill="#303037"/>
<mask id="mask0_1473_58" style="mask-type:alpha" maskUnits="userSpaceOnUse" x="0" y="0" width="43" height="30">
<path d="M0.313721 10.1881L13.1194 -3.05176e-05L25.9251 10.1881V29.4919H0.313721V10.1881Z" fill="#F2EDE6"/>
<path d="M17.3887 10.1881L30.1944 -3.05176e-05L43.0001 10.1881V29.4919H17.3887V10.1881Z" fill="#F2EDE6"/>
</mask>
<g mask="url(#mask0_1473_58)">
<path fill-rule="evenodd" clip-rule="evenodd" d="M44.4825 -3.04608H-1.47998V34.0205H44.4825V-3.04608ZM17.7945 10.1302L21.8093 6.91307L25.9259 10.2116V29.5724H17.7945V10.1302Z" fill="#303037"/>
</g>
</svg>
